<svg id="Layer_1" data-name="Layer 1" xmlns="http://www.w3.org/2000/svg" viewBox="0 0 300 300"><defs><style>.cls-1{fill:#dc2626;}</style></defs><path class="cls-1" d="M150,0A150,150,0,1,0,300,150,150,150,0,0,0,150,0ZM71,110.18a22,22,0,1,1,22,22A22,22,0,0,1,71,110.18ZM185.45,198.4c-.11,14.26-7.56,27.33-21.56,37.83-.18.14-.38.28-.57.4a53.21,53.21,0,0,1-29.07,8.81,51,51,0,0,1-35.1-14.1l-.23-.22c-9.33-9.33-14.38-19.82-15.43-32.06-1.29-12.38-1.13-24.7-1-36.62,0-3.87.1-7.88.1-11.81a10.37,10.37,0,1,1,20.73,0c0,4.06,0,8.14-.1,12.08-.16,11.88-.3,23.09.87,34.29l0,.22c.6,7.25,3.56,13.33,9.32,19.13,10.49,9.78,25.81,11,38.27,3.08,8.61-6.54,13-13.72,13-21.35,0-.19,0-.39,0-.59,1.22-21.46,1.07-43.8.91-65.41-.05-7.19-.1-14.63-.1-21.9a10.37,10.37,0,1,1,20.73,0c0,7.2.05,14.6.1,21.75C186.54,153.78,186.7,176.36,185.45,198.4Zm42.71,37.1a10.37,10.37,0,1,1-20.73,0v-129a31.1,31.1,0,1,0-62.2,0v82.93a10.37,10.37,0,0,1-20.73,0V106.45a51.83,51.83,0,1,1,103.66,0Z"/></svg>